<?xml version="1.0" encoding="UTF-8" standalone="no"?>
<!DOCTYPE svg PUBLIC "-//W3C//DTD SVG 1.1//EN" "http://www.w3.org/Graphics/SVG/1.1/DTD/svg11.dtd">
<svg width="100%" height="100%" viewBox="0 0 556 113" version="1.1" xmlns="http://www.w3.org/2000/svg" xmlns:xlink="http://www.w3.org/1999/xlink" xml:space="preserve" xmlns:serif="http://www.serif.com/" style="fill-rule:evenodd;clip-rule:evenodd;stroke-linejoin:round;stroke-miterlimit:2;">
    <g id="Logo-type" serif:id="Logo type" transform="matrix(1,0,0,1,-113.005,-216.839)">
        <g transform="matrix(1,0,0,1,0,145.314)">
            <path d="M488.26,166.057C488.26,172.825 490.521,177.678 493.82,180.902C497.224,184.228 501.844,185.898 506.843,185.898C509.089,185.898 511.005,184.273 511.372,182.058L512.798,173.461C513.131,171.451 512.1,169.461 510.265,168.575C509.314,168.116 508.858,167.356 508.591,166.277C508.241,164.866 508.151,163.13 508.151,161.002C508.151,161.002 508.151,75.116 508.151,75.116C508.151,73.736 507.53,72.43 506.461,71.558C505.391,70.686 503.986,70.341 502.635,70.619L491.926,72.822C489.791,73.261 488.26,75.14 488.26,77.319L488.26,166.057ZM389.23,175.699C391.061,174.148 391.389,171.449 389.982,169.505L384.887,162.462C383.422,160.437 380.607,159.956 378.552,161.379C373.26,165.047 366.991,167.26 360.3,167.26C354.289,167.26 349.28,165.491 345.694,162.117C343.127,159.702 341.319,156.499 340.323,152.673C340.323,152.674 391.445,152.674 391.445,152.674C393.751,152.674 395.699,150.963 395.997,148.677C396.142,147.567 396.338,145.299 396.338,143.031C396.338,120.766 381.59,103.447 358.788,103.447C336.915,103.447 319.417,119.517 319.417,145.19C319.417,171.503 337.613,185.898 359.781,185.898C371.032,185.898 381.685,182.09 389.23,175.699ZM557.006,185.898C580.01,185.898 597.886,168.918 597.886,144.456C597.886,120.063 580.192,103.447 557.309,103.447C534.248,103.447 516.559,120.335 516.559,144.759C516.559,169.102 534.123,185.898 557.006,185.898ZM422.606,109.333L422.606,75.116C422.606,73.738 421.987,72.432 420.919,71.56C419.851,70.688 418.448,70.342 417.097,70.618L406.302,72.821C404.164,73.258 402.629,75.138 402.629,77.32L402.629,179.881C402.629,182.417 404.684,184.472 407.22,184.472L416.374,184.472C418.732,184.472 420.707,182.686 420.942,180.339L421.116,178.602C427.214,183.363 434.663,185.898 442.99,185.898C462.306,185.898 480.932,172.152 480.932,145.061C480.932,118.803 463.339,103.447 442.644,103.447C435.278,103.447 428.322,105.457 422.606,109.333ZM111.691,118.833C111.691,121.369 113.746,123.424 116.282,123.424L124.825,123.424C124.825,123.424 124.825,157.977 124.825,157.977C124.825,177.115 139.548,185.383 154.747,185.895C157.077,185.974 159.096,184.293 159.441,181.987L160.78,173.044C161.138,170.658 159.588,168.402 157.232,167.881C153.164,166.981 149.849,166.219 147.646,164.012C145.542,161.903 144.759,158.531 144.759,153.008C144.759,153.008 144.759,123.424 144.759,123.424C144.759,123.424 158.746,123.424 158.746,123.424C161.282,123.424 163.337,121.369 163.337,118.833L163.337,109.464C163.337,106.928 161.282,104.873 158.746,104.873L144.759,104.873C144.759,104.873 144.759,84.794 144.759,84.794C144.759,83.415 144.139,82.109 143.07,81.237C142.002,80.365 140.598,80.02 139.247,80.297L128.494,82.5C126.358,82.938 124.825,84.817 124.825,86.997L124.825,104.873C124.825,104.873 116.282,104.873 116.282,104.873C113.746,104.873 111.691,106.928 111.691,109.464L111.691,118.833ZM214.177,184.472C216.713,184.472 218.768,182.417 218.768,179.881L218.768,140.436C218.768,130.702 224.159,122.431 234.098,122.431C237.385,122.431 239.916,123.292 241.716,125.015C244.791,127.957 245.797,132.887 245.797,138.664C245.797,138.664 245.797,179.881 245.797,179.881C245.797,182.417 247.853,184.472 250.388,184.472L261.14,184.472C263.676,184.472 265.731,182.417 265.731,179.881L265.731,140.436C265.731,130.538 271.038,122.363 281.073,122.43C281.078,122.43 281.082,122.431 281.087,122.431C284.424,122.443 286.973,123.303 288.776,125.031C291.842,127.97 292.803,132.888 292.803,138.664L292.803,179.881C292.803,182.417 294.859,184.472 297.394,184.472L308.19,184.472C310.725,184.472 312.781,182.417 312.781,179.881L312.781,137.239C312.781,125.562 309.313,115.918 302.573,109.991C297.91,105.891 291.648,103.447 283.61,103.447C273.667,103.447 265.129,107.186 258.966,114.01C253.688,107.136 245.488,103.447 236.128,103.447C228.935,103.447 222.467,105.619 217.217,109.684C217.217,109.684 217.146,108.994 217.146,108.994C216.906,106.653 214.933,104.873 212.58,104.873L203.425,104.873C200.889,104.873 198.834,106.928 198.834,109.464L198.834,179.881C198.834,182.417 200.889,184.472 203.425,184.472L214.177,184.472ZM166.949,179.881C166.949,182.417 169.005,184.472 171.54,184.472L182.293,184.472C184.828,184.472 186.883,182.417 186.883,179.881L186.883,109.464C186.883,106.928 184.828,104.873 182.293,104.873L171.54,104.873C169.005,104.873 166.949,106.928 166.949,109.464L166.949,179.881ZM594.058,177.153C593.029,178.547 592.871,180.402 593.652,181.949C594.433,183.496 596.018,184.472 597.751,184.472L610.149,184.472C611.617,184.472 612.995,183.771 613.859,182.585L630.933,159.158C630.933,159.158 648.045,182.589 648.045,182.589C648.909,183.772 650.286,184.472 651.752,184.472L664.842,184.472C666.578,184.472 668.165,183.492 668.944,181.941C669.723,180.389 669.56,178.531 668.523,177.138L643.026,142.915C643.026,142.915 665.441,112.168 665.441,112.168C666.459,110.772 666.607,108.923 665.824,107.383C665.04,105.843 663.459,104.873 661.731,104.873L649.506,104.873C648.028,104.873 646.64,105.584 645.778,106.784L631.076,127.235C631.076,127.235 616.524,106.801 616.524,106.801C615.663,105.591 614.27,104.873 612.785,104.873L599.738,104.873C598.009,104.873 596.427,105.844 595.645,107.385C594.862,108.927 595.012,110.777 596.032,112.173L618.925,143.492C618.925,143.492 594.058,177.153 594.058,177.153ZM557.006,167.087C545.226,167.087 536.622,157.662 536.622,144.672C536.622,131.532 545.407,122.344 557.266,122.344C569.107,122.344 577.736,131.555 577.736,144.499C577.736,157.623 568.882,167.087 557.006,167.087ZM441.564,167.044C429.531,167.044 422.217,157.22 422.217,144.37C422.217,130.963 430.229,122.344 441.478,122.344C453.184,122.344 460.868,131.649 460.868,144.845C460.868,158.23 453.002,167.044 441.564,167.044ZM340.827,135.116C343.47,127.393 350.133,122.085 358.874,122.085C367.904,122.085 373.651,127.872 375.647,135.116C375.647,135.116 340.827,135.116 340.827,135.116L340.827,135.116ZM176.938,98.582C183.657,98.582 189.13,93.109 189.13,86.39C189.13,79.67 183.657,74.198 176.938,74.198C170.218,74.198 164.746,79.67 164.746,86.39C164.746,93.109 170.218,98.582 176.938,98.582Z" style="fill-rule:nonzero;"/>
        </g>
        <path d="M489.574,311.057C489.574,317.39 491.651,321.945 494.739,324.962C497.901,328.052 502.2,329.584 506.843,329.584C508.446,329.584 509.814,328.424 510.076,326.843L511.502,318.246C511.74,316.811 511.003,315.391 509.694,314.759C508.37,314.12 507.688,313.096 507.316,311.593C506.945,310.098 506.837,308.258 506.837,306.002C506.837,306.002 506.837,220.116 506.837,220.116C506.837,219.131 506.394,218.199 505.63,217.576C504.867,216.954 503.864,216.708 502.9,216.906L492.19,219.109C490.667,219.423 489.574,220.764 489.574,222.319L489.574,311.057ZM421.292,256.943L421.292,220.116C421.292,219.132 420.85,218.2 420.088,217.578C419.326,216.956 418.324,216.709 417.36,216.905L406.564,219.109C405.039,219.42 403.943,220.762 403.943,222.32L403.943,324.881C403.943,326.691 405.41,328.158 407.22,328.158L416.374,328.158C418.057,328.158 419.467,326.883 419.635,325.208L420.058,320.993C426.249,326.585 434.101,329.584 442.99,329.584C461.662,329.584 479.618,316.249 479.618,290.061C479.618,264.665 462.659,249.761 442.644,249.761C434.643,249.761 427.138,252.215 421.292,256.943ZM557.006,329.584C579.275,329.584 596.572,313.138 596.572,289.456C596.572,265.849 579.455,249.761 557.309,249.761C534.986,249.761 517.873,266.117 517.873,289.759C517.873,313.318 534.86,329.584 557.006,329.584ZM595.115,322.934C594.38,323.929 594.268,325.253 594.825,326.357C595.382,327.462 596.514,328.158 597.751,328.158L610.149,328.158C611.197,328.158 612.181,327.657 612.798,326.811L630.932,301.928C630.932,301.928 649.106,326.814 649.106,326.814C649.723,327.659 650.706,328.158 651.752,328.158L664.842,328.158C666.081,328.158 667.214,327.459 667.77,326.351C668.326,325.244 668.21,323.917 667.469,322.923L641.393,287.923C641.393,287.923 664.379,256.394 664.379,256.394C665.106,255.397 665.211,254.077 664.652,252.978C664.093,251.879 662.965,251.187 661.731,251.187L649.506,251.187C648.451,251.187 647.46,251.694 646.845,252.551L631.071,274.494C631.071,274.494 615.454,252.563 615.454,252.563C614.839,251.699 613.845,251.187 612.785,251.187L599.738,251.187C598.504,251.187 597.375,251.88 596.816,252.98C596.258,254.08 596.364,255.401 597.092,256.397L620.555,288.496C620.555,288.496 595.115,322.934 595.115,322.934ZM557.006,313.401C544.504,313.401 535.308,303.458 535.308,289.672C535.308,275.729 544.683,266.03 557.266,266.03C569.836,266.03 579.05,275.759 579.05,289.499C579.05,303.418 569.601,313.401 557.006,313.401ZM441.564,313.358C428.783,313.358 420.903,303.018 420.903,289.37C420.903,275.113 429.516,266.03 441.478,266.03C453.914,266.03 462.182,275.826 462.182,289.845C462.182,304.073 453.722,313.358 441.564,313.358Z" style="fill:rgb(130,255,185);fill-rule:nonzero;"/>
        <path d="M388.381,319.696C389.688,318.59 389.922,316.663 388.918,315.275L383.822,308.232C382.777,306.786 380.767,306.443 379.301,307.459C373.792,311.277 367.265,313.574 360.3,313.574C353.914,313.574 348.604,311.659 344.794,308.074C341.697,305.16 339.618,301.175 338.678,296.359C338.678,296.36 391.445,296.36 391.445,296.36C393.091,296.36 394.481,295.139 394.694,293.507C394.834,292.43 395.024,290.231 395.024,288.031C395.024,266.524 380.813,249.761 358.788,249.761C337.623,249.761 320.731,265.348 320.731,290.19C320.731,315.65 338.331,329.584 359.781,329.584C370.705,329.584 381.054,325.902 388.381,319.696ZM113.005,263.833C113.005,265.643 114.472,267.11 116.282,267.11L126.139,267.11C126.139,267.11 126.139,302.977 126.139,302.977C126.139,321.262 140.27,329.093 154.791,329.582C156.454,329.638 157.895,328.438 158.142,326.792L159.481,317.849C159.736,316.146 158.63,314.536 156.948,314.164C152.591,313.2 149.075,312.304 146.716,309.94C144.428,307.647 143.445,304.015 143.445,298.008C143.445,298.008 143.445,267.11 143.445,267.11C143.445,267.11 158.746,267.11 158.746,267.11C160.556,267.11 162.023,265.643 162.023,263.833L162.023,254.464C162.023,252.654 160.556,251.187 158.746,251.187L143.445,251.187C143.445,251.187 143.445,229.794 143.445,229.794C143.445,228.809 143.003,227.877 142.24,227.255C141.477,226.633 140.475,226.386 139.51,226.584L128.758,228.787C127.234,229.1 126.139,230.441 126.139,231.997L126.139,251.187C126.139,251.187 116.282,251.187 116.282,251.187C114.472,251.187 113.005,252.654 113.005,254.464L113.005,263.833ZM214.177,328.158C215.987,328.158 217.454,326.691 217.454,324.881L217.454,285.436C217.454,274.939 223.38,266.117 234.098,266.117C237.785,266.117 240.605,267.133 242.625,269.066C245.921,272.22 247.111,277.471 247.111,283.664C247.111,283.664 247.111,324.881 247.111,324.881C247.111,326.691 248.578,328.158 250.388,328.158L261.14,328.158C262.95,328.158 264.417,326.691 264.417,324.881L264.417,285.436C264.417,274.761 270.259,266.043 281.082,266.117C281.085,266.117 281.089,266.117 281.092,266.117C284.829,266.13 287.666,267.147 289.685,269.083C292.973,272.234 294.117,277.472 294.117,283.664L294.117,324.881C294.117,326.691 295.585,328.158 297.394,328.158L308.19,328.158C310,328.158 311.467,326.691 311.467,324.881L311.467,282.239C311.467,270.996 308.195,261.685 301.705,255.978C297.257,252.067 291.276,249.761 283.61,249.761C273.475,249.761 264.857,253.801 258.874,261.138C253.904,253.738 245.638,249.761 236.128,249.761C228.367,249.761 221.487,252.4 216.165,257.297C216.165,257.297 215.839,254.129 215.839,254.129C215.667,252.457 214.26,251.187 212.58,251.187L203.425,251.187C201.615,251.187 200.148,252.654 200.148,254.464L200.148,324.881C200.148,326.691 201.615,328.158 203.425,328.158L214.177,328.158ZM168.263,324.881C168.263,326.691 169.73,328.158 171.54,328.158L182.293,328.158C184.102,328.158 185.569,326.691 185.569,324.881L185.569,254.464C185.569,252.654 184.102,251.187 182.293,251.187L171.54,251.187C169.73,251.187 168.263,252.654 168.263,254.464L168.263,324.881ZM339.061,281.43C341.424,272.239 348.89,265.771 358.874,265.771C369.265,265.771 375.635,272.884 377.307,281.43C377.307,281.43 339.061,281.43 339.061,281.43L339.061,281.43ZM176.938,242.268C182.933,242.268 187.816,237.385 187.816,231.39C187.816,225.394 182.933,220.512 176.938,220.512C170.943,220.512 166.06,225.394 166.06,231.39C166.06,237.385 170.943,242.268 176.938,242.268Z" style="fill:rgb(130,255,185);fill-rule:nonzero;"/>
    </g>
</svg>
